<svg width="960" height="720" viewBox="0 0 960 720" fill="none" xmlns="http://www.w3.org/2000/svg">
  <rect width="960" height="720" rx="48" fill="#F4E9D6"/>
  <rect x="94" y="96" width="772" height="528" rx="36" fill="#E8C88C"/>
  <rect x="156" y="224" width="648" height="340" rx="20" fill="#B85738"/>
  <rect x="198" y="264" width="564" height="260" rx="18" fill="#F6EFE5"/>
  <rect x="430" y="172" width="100" height="118" rx="18" fill="#B85738"/>
  <rect x="446" y="112" width="68" height="78" rx="14" fill="#D5864B"/>
  <path d="M234 524H726V566H234V524Z" fill="#D7B06C"/>
  <path d="M320 308C320 285.909 337.909 268 360 268H392C414.091 268 432 285.909 432 308V524H320V308Z" fill="#D8A164"/>
  <path d="M528 308C528 285.909 545.909 268 568 268H600C622.091 268 640 285.909 640 308V524H528V308Z" fill="#D8A164"/>
  <circle cx="480" cy="370" r="54" fill="#E8C88C"/>
  <text x="82" y="118" fill="#7C3C20" font-size="42" font-family="Georgia, serif">Culture &amp; heritage</text>
  <text x="82" y="168" fill="#91563C" font-size="24" font-family="Arial, sans-serif">Local homepage artwork stored inside the Next.js project</text>
</svg>
